# xmcd
#
# Track frame offsets:
#	150
#	20318
#	45091
#	61349
#	82200
#	100145
#	119466
#	133819
#	149759
#	169613
#	187645
#
# Disc length: 2599 seconds
#
# Revision: 1
# Processed by: cddbd v1.5.1PL0 Copyright (c) Steve Scherf et al.
# Submitted via: audiograbber 1.82.02
#
DISCID=8f0a250b
DTITLE=Lance Dalby - Songs From The Basement
DYEAR=2004
DGENRE=Country
TTITLE0=Rock-N-Roll Bye Bye 
TTITLE1=Wait For The Sun
TTITLE2=Know Good Know How
TTITLE3=Contry Side Of Life
TTITLE4=I Am A Man
TTITLE5=Dreamin' My Life Away
TTITLE6=Carry On
TTITLE7=Someday
TTITLE8=Green Eyes 9
TTITLE9=Insanity
TTITLE10=Another Man's Gone
EXTD=
EXTT0=
EXTT1=
EXTT2=
EXTT3=
EXTT4=
EXTT5=
EXTT6=
EXTT7=
EXTT8=
EXTT9=
EXTT10=
PLAYORDER=
